{"glyphs":{":":{"x_min":0,"x_max":440,"ha":440,"o":"m 102 162 l 267 162 l 233 0 l 67 0 z m 178 514 l 344 514 l 309 352 l 143 352 z"},"$":{"x_min":0,"x_max":616,"ha":616,"o":"m 318 287 l 282 123 l 284 123 q 327 123 354 150 q 382 176 382 216 q 382 243 366 260 q 351 278 318 287 z m 339 579 q 295 576 270 556 q 244 536 244 504 q 244 482 260 468 q 275 453 310 441 z m 382 785 l 439 785 l 421 699 q 460 696 502 689 q 544 682 588 671 l 549 543 q 511 558 473 567 q 435 576 395 579 l 364 430 q 457 404 502 358 q 547 312 547 243 q 547 133 469 64 q 391 -4 263 -4 l 258 -4 l 238 -88 l 183 -88 l 200 -5 q 151 -4 103 4 q 54 12 6 28 l 45 164 q 103 145 147 134 q 191 124 227 122 l 264 295 q 170 326 126 373 q 82 421 82 492 q 82 585 157 642 q 232 698 359 698 l 365 698 z"},"?":{"x_min":0,"x_max":551,"ha":551,"o":"m 138 155 l 305 155 l 272 0 l 105 0 z m 312 230 l 169 230 q 170 276 190 313 q 209 350 266 401 q 272 407 285 417 q 354 480 354 521 q 354 554 327 572 q 301 589 250 589 q 211 589 171 580 q 130 570 94 553 l 115 688 q 157 701 199 707 q 242 713 285 713 q 400 713 467 668 q 533 623 533 545 q 533 461 406 349 l 396 340 q 344 294 328 272 q 312 250 312 230 z"},"<":{"x_min":0,"x_max":833,"ha":833,"o":"m 704 593 l 704 469 l 287 298 l 704 128 l 704 4 l 129 241 l 129 355 z"},"'":{"x_min":0,"x_max":181,"ha":181,"o":"m 37 702 l 144 702 l 144 428 l 37 428 z"},"=":{"x_min":0,"x_max":833,"ha":833,"o":"m 124 245 l 709 245 l 709 133 l 124 133 z m 124 464 l 709 464 l 709 351 l 124 351 z"},"a":{"x_min":0,"x_max":611,"ha":611,"o":"m 370 235 q 360 236 350 236 q 339 237 319 237 q 248 237 210 217 q 173 196 173 157 q 173 131 191 115 q 209 99 239 99 q 288 99 324 136 q 361 173 370 235 z m 545 276 l 515 130 q 505 85 501 56 q 496 27 494 0 l 345 0 l 355 78 q 325 34 280 11 q 235 -11 177 -11 q 99 -11 52 31 q 5 73 5 142 q 5 230 84 280 q 164 329 308 329 q 325 329 346 328 q 366 327 391 324 q 392 327 392 331 q 392 334 392 341 q 392 380 367 401 q 341 421 293 421 q 248 421 206 411 q 164 401 125 382 l 146 502 q 188 517 231 525 q 273 532 317 532 q 430 532 493 489 q 556 445 556 368 q 556 351 553 327 q 550 304 545 276 z"},"L":{"x_min":0,"x_max":565,"ha":565,"o":"m 159 694 l 346 694 l 227 138 l 514 138 l 484 0 l 11 0 z"},"3":{"x_min":0,"x_max":616,"ha":616,"o":"m 394 359 q 457 342 489 305 q 520 269 520 213 q 520 104 439 44 q 358 -16 212 -16 q 158 -16 101 -5 q 45 7 -14 30 l 23 168 q 58 146 100 136 q 141 125 190 125 q 262 125 303 152 q 345 179 345 225 q 345 264 310 282 q 275 300 200 300 q 184 300 174 300 q 165 299 156 299 l 181 419 q 190 419 205 418 q 221 418 228 418 q 327 418 366 436 q 405 455 405 499 q 405 537 375 558 q 346 580 294 580 q 259 580 216 572 q 173 563 122 547 l 143 684 q 191 697 239 703 q 287 709 336 709 q 448 709 512 661 q 576 613 576 529 q 576 459 527 414 q 479 368 394 359 z"},";":{"x_min":0,"x_max":440,"ha":440,"o":"m 117 157 l 293 157 l 144 -109 l 5 -109 z m 175 514 l 341 514 l 307 354 l 141 354 z"},"J":{"x_min":0,"x_max":440,"ha":440,"o":"m 268 694 l 454 694 l 348 201 q 324 89 259 37 q 193 -16 78 -16 q 38 -16 5 -10 q -28 -3 -56 10 l -17 161 q 7 153 27 149 q 46 145 61 145 q 106 145 135 173 q 164 200 176 256 z"},"V":{"x_min":0,"x_max":704,"ha":704,"o":"m 67 694 l 250 694 l 290 319 q 293 292 294 266 q 296 239 296 214 q 296 196 295 178 q 294 160 293 142 l 298 142 q 308 176 323 214 q 339 251 361 293 l 571 694 l 766 694 l 381 0 l 158 0 z"},"\"":{"x_min":0,"x_max":348,"ha":348,"o":"m 203 702 l 312 702 l 312 428 l 203 428 z m 37 702 l 144 702 l 144 428 l 37 428 z"},"7":{"x_min":0,"x_max":616,"ha":616,"o":"m 128 694 l 630 694 l 598 541 l 238 0 l 35 0 l 358 482 q 367 496 385 519 q 403 542 426 569 l 102 569 z"},"S":{"x_min":0,"x_max":609,"ha":609,"o":"m 600 678 l 557 543 q 519 560 480 569 q 441 577 400 577 q 338 577 305 559 q 272 541 272 506 q 272 468 346 438 q 376 425 393 417 q 479 375 511 335 q 542 295 542 233 q 542 119 455 52 q 368 -16 219 -16 q 156 -16 98 -7 q 41 3 -13 22 l 27 165 q 70 144 111 133 q 152 122 191 122 q 262 122 303 146 q 344 169 344 209 q 344 259 235 303 q 208 313 193 320 q 134 345 105 385 q 76 426 76 483 q 76 583 157 646 q 237 709 368 709 q 441 709 500 701 q 559 693 600 678 z"},"}":{"x_min":0,"x_max":500,"ha":500,"o":"m 65 721 q 72 721 85 722 q 98 722 104 722 q 157 722 192 716 q 227 710 251 698 q 279 683 291 655 q 303 626 303 560 l 303 436 q 303 371 327 344 q 351 317 409 317 q 412 317 418 317 q 424 318 427 318 l 427 200 q 424 200 418 201 q 412 201 409 201 q 351 201 327 174 q 303 147 303 83 l 303 -42 q 303 -109 291 -137 q 279 -165 251 -180 q 229 -192 196 -198 q 162 -203 109 -203 q 102 -203 87 -203 q 73 -202 65 -202 l 65 -84 q 69 -84 76 -84 q 83 -85 86 -85 q 133 -85 150 -68 q 166 -51 166 3 l 166 121 q 166 189 188 218 q 211 247 269 259 q 210 271 188 300 q 166 329 166 398 l 166 515 q 166 569 150 587 q 133 604 88 604 q 84 604 77 604 q 69 603 65 603 z"},"Z":{"x_min":0,"x_max":625,"ha":625,"o":"m 132 694 l 667 694 l 634 554 l 206 134 l 547 134 l 514 0 l -27 0 l 6 162 l 409 562 l 104 562 z"},"x":{"x_min":0,"x_max":606,"ha":606,"o":"m 60 514 l 251 514 l 306 363 l 420 514 l 625 514 l 409 267 l 526 0 l 336 0 l 275 162 l 157 0 l -57 0 l 170 274 z"},")":{"x_min":0,"x_max":387,"ha":387,"o":"m 84 761 l 216 761 q 261 669 283 576 q 305 484 305 390 q 305 242 241 108 q 176 -26 51 -139 l -100 -139 q 23 -17 88 131 q 153 278 153 435 q 153 521 136 602 q 119 683 84 761 z"},"&":{"x_min":0,"x_max":771,"ha":771,"o":"m 269 299 q 228 278 207 250 q 185 223 185 191 q 185 147 211 124 q 237 100 284 100 q 314 100 343 109 q 371 119 398 137 z m 407 353 l 509 224 q 542 256 563 294 q 584 332 592 375 l 738 375 q 719 290 683 226 q 647 162 593 115 l 690 0 l 507 0 l 476 41 q 429 11 377 -3 q 325 -18 266 -18 q 153 -18 88 36 q 23 89 23 181 q 23 258 70 315 q 116 371 197 391 q 167 426 152 460 q 137 494 137 528 q 137 612 203 662 q 270 712 383 712 q 479 712 537 665 q 595 618 595 542 q 595 481 549 435 q 503 389 407 353 z m 341 439 q 393 458 419 482 q 446 507 446 537 q 446 564 425 582 q 405 600 374 600 q 337 600 313 578 q 290 556 290 522 q 290 503 301 485 q 312 466 341 439 z"},"_":{"x_min":0,"x_max":500,"ha":500,"o":"m 0 -119 l 500 -119 l 500 -236 l 0 -236 z"},"v":{"x_min":0,"x_max":606,"ha":606,"o":"m 37 514 l 215 514 l 255 144 l 438 514 l 626 514 l 324 0 l 123 0 z"},"O":{"x_min":0,"x_max":778,"ha":778,"o":"m 552 422 q 552 498 519 540 q 485 581 425 581 q 382 581 345 556 q 308 531 278 483 q 253 443 238 387 q 223 331 223 277 q 223 204 257 161 q 291 119 349 119 q 392 119 428 143 q 464 167 497 218 q 521 256 537 312 q 552 369 552 422 z m 437 710 q 581 710 662 631 q 743 552 743 412 q 743 337 720 265 q 697 192 657 138 q 601 62 520 23 q 440 -17 343 -17 q 198 -17 116 63 q 35 143 35 284 q 35 358 55 427 q 76 496 113 547 q 172 629 253 669 q 333 710 437 710 z"},"(":{"x_min":0,"x_max":387,"ha":387,"o":"m 320 762 l 472 762 q 348 637 283 490 q 218 343 218 187 q 218 101 235 20 q 252 -61 287 -139 l 156 -139 q 111 -45 88 48 q 66 140 66 232 q 66 381 131 516 q 196 651 320 762 z"},"C":{"x_min":0,"x_max":662,"ha":662,"o":"m 704 669 l 658 528 q 622 551 581 562 q 540 573 493 573 q 368 573 297 502 q 227 431 227 305 q 227 223 280 175 q 333 127 425 127 q 465 127 507 138 q 548 148 591 170 l 573 10 q 522 -3 475 -10 q 428 -16 383 -16 q 219 -16 128 70 q 36 157 36 310 q 36 389 65 463 q 93 537 144 589 q 205 652 283 681 q 361 710 468 710 q 523 710 582 700 q 641 689 704 669 z"},"W":{"x_min":0,"x_max":988,"ha":988,"o":"m 78 694 l 252 694 l 248 384 q 248 354 244 290 q 239 227 231 141 l 238 141 q 252 189 265 229 q 277 270 287 296 l 444 694 l 671 694 l 666 315 q 665 260 663 218 q 661 176 658 141 l 665 141 q 673 175 686 214 q 698 253 719 311 l 858 694 l 1041 694 l 748 0 l 521 0 l 527 367 q 528 422 530 471 q 532 521 536 566 l 528 566 q 513 518 499 478 q 486 439 472 403 l 320 0 l 89 0 z"},"A":{"x_min":0,"x_max":748,"ha":748,"o":"m 441 558 l 287 279 l 474 279 z m 348 694 l 578 694 l 690 0 l 506 0 l 488 148 l 216 148 l 133 0 l -62 0 z"},"f":{"x_min":0,"x_max":442,"ha":442,"o":"m 516 740 l 482 625 q 467 632 454 635 q 442 638 430 638 q 402 638 382 623 q 361 607 355 582 l 338 514 l 468 514 l 442 389 l 311 389 l 229 0 l 51 0 l 134 389 l 27 389 l 54 514 l 160 514 l 178 595 q 196 675 254 718 q 311 760 402 760 q 430 760 458 755 q 487 750 516 740 z"},"Q":{"x_min":0,"x_max":778,"ha":778,"o":"m 511 17 l 641 -132 l 430 -132 l 353 -17 l 339 -17 q 200 -17 117 62 q 35 142 35 276 q 35 355 55 425 q 75 494 113 547 q 172 629 253 669 q 333 710 437 710 q 581 710 662 631 q 743 552 743 412 q 743 280 683 177 q 622 73 511 17 z m 552 422 q 552 498 519 540 q 485 581 425 581 q 382 581 345 556 q 308 531 278 483 q 253 443 238 387 q 223 331 223 277 q 223 204 257 161 q 291 119 349 119 q 392 119 428 143 q 464 167 497 218 q 521 256 537 312 q 552 369 552 422 z"},"w":{"x_min":0,"x_max":937,"ha":937,"o":"m 42 514 l 218 514 l 223 267 q 223 239 223 205 q 223 170 222 132 q 236 178 273 254 l 276 260 l 398 514 l 609 514 l 615 254 l 615 132 q 623 161 636 193 q 648 226 667 265 l 784 514 l 962 514 l 691 0 l 487 0 l 478 231 q 477 271 476 291 q 476 311 476 328 q 476 353 476 365 q 477 378 477 388 q 461 348 449 319 q 437 290 429 273 l 300 0 l 91 0 z"},"-":{"x_min":0,"x_max":331,"ha":331,"o":"m 34 354 l 303 354 l 276 228 l 7 228 z"},"E":{"x_min":0,"x_max":604,"ha":604,"o":"m 140 694 l 629 694 l 601 565 l 297 565 l 268 426 l 554 426 l 528 301 l 241 301 l 205 130 l 520 130 l 492 0 l -8 0 z"},"s":{"x_min":0,"x_max":500,"ha":500,"o":"m 478 498 l 439 385 q 390 401 360 408 q 329 414 303 414 q 266 414 244 401 q 223 389 223 367 q 223 339 288 316 q 314 306 329 300 q 384 277 409 247 q 434 216 434 173 q 434 88 368 37 q 302 -14 191 -14 q 136 -14 85 -6 q 34 2 -14 19 l 23 143 q 59 125 95 117 q 130 108 167 108 q 210 108 234 120 q 257 132 257 154 q 257 186 197 209 q 187 213 182 215 q 107 246 80 277 q 53 309 53 360 q 53 435 120 482 q 187 529 297 529 q 338 529 383 521 q 428 514 478 498 z"},">":{"x_min":0,"x_max":833,"ha":833,"o":"m 129 593 l 704 355 l 704 241 l 129 4 l 129 128 l 546 298 l 129 469 z"},"l":{"x_min":0,"x_max":331,"ha":331,"o":"m 162 750 l 340 750 l 181 0 l 3 0 z"},"8":{"x_min":0,"x_max":616,"ha":616,"o":"m 296 305 q 236 283 210 256 q 184 229 184 190 q 184 150 208 129 q 231 107 274 107 q 317 107 347 135 q 376 163 376 203 q 376 231 358 254 q 341 277 296 305 z m 427 354 q 487 325 514 289 q 541 252 541 201 q 541 94 470 40 q 399 -15 260 -15 q 145 -15 80 36 q 14 88 14 178 q 14 248 60 299 q 105 351 183 370 q 139 398 119 434 q 98 469 98 517 q 98 605 170 659 q 242 714 362 714 q 469 714 531 665 q 592 616 592 531 q 592 465 550 420 q 508 375 427 354 z m 319 415 q 374 433 404 463 q 434 493 434 529 q 434 558 410 578 q 386 598 350 598 q 308 598 282 572 q 257 546 257 502 q 257 480 272 458 q 288 437 319 415 z"},"\\":{"x_min":0,"x_max":280,"ha":280,"o":"m 3 731 l 101 731 l 270 0 l 172 0 z"},"e":{"x_min":0,"x_max":611,"ha":611,"o":"m 550 211 l 181 211 q 186 154 218 127 q 250 100 313 100 q 355 100 400 110 q 445 120 488 139 l 468 12 q 422 -2 374 -10 q 326 -17 278 -17 q 159 -17 89 48 q 20 113 20 224 q 20 287 45 347 q 70 408 112 450 q 153 490 211 510 q 269 531 341 531 q 447 531 505 473 q 562 416 562 309 q 562 287 559 262 q 556 238 550 211 z m 413 310 q 414 320 415 325 q 415 330 415 334 q 415 377 391 402 q 366 427 325 427 q 283 427 251 396 q 219 365 204 310 z"},"b":{"x_min":0,"x_max":685,"ha":685,"o":"m 458 292 q 458 339 434 367 q 410 395 369 395 q 314 395 274 345 q 234 295 234 227 q 234 177 260 148 q 286 118 329 118 q 382 118 420 169 q 458 220 458 292 z m 159 750 l 337 750 l 271 449 q 308 489 350 509 q 393 529 442 529 q 534 529 588 467 q 642 405 642 299 q 642 160 566 73 q 491 -14 370 -14 q 309 -14 264 15 q 219 45 189 104 l 164 0 l 2 0 z"},"%":{"x_min":0,"x_max":949,"ha":949,"o":"m 737 304 q 711 304 700 277 q 689 250 689 187 q 689 123 700 97 q 711 71 737 71 q 763 71 774 97 q 785 123 785 187 q 785 251 774 278 q 763 304 737 304 z m 738 391 q 818 391 866 336 q 913 281 913 187 q 913 94 865 39 q 818 -16 738 -16 q 658 -16 610 39 q 562 95 562 187 q 562 281 610 336 q 658 391 738 391 z m 211 624 q 185 624 174 597 q 162 569 162 507 q 162 442 173 416 q 184 390 210 390 q 236 390 247 416 q 258 442 258 507 q 258 572 247 598 q 236 624 211 624 z m 606 711 l 709 711 l 343 -16 l 239 -16 z m 211 711 q 291 711 339 656 q 386 601 386 507 q 386 414 339 358 q 291 303 211 303 q 131 303 84 358 q 36 414 36 507 q 36 601 83 656 q 131 711 211 711 z"},"m":{"x_min":0,"x_max":956,"ha":956,"o":"m 887 295 l 823 0 l 652 0 l 706 258 q 710 278 713 294 q 715 310 715 322 q 715 350 700 366 q 686 383 661 383 q 641 383 623 374 q 605 365 592 348 q 567 316 553 241 q 550 225 548 217 l 502 0 l 320 0 l 375 258 q 379 276 381 293 q 383 311 383 328 q 383 354 369 369 q 355 383 329 383 q 289 383 264 352 q 239 322 225 256 l 170 0 l -12 0 l 98 519 l 252 519 l 232 425 q 276 478 320 502 q 363 527 412 527 q 467 527 502 502 q 537 477 553 426 q 597 480 640 503 q 683 527 737 527 q 810 527 852 483 q 894 440 894 365 q 894 348 892 330 q 891 313 887 295 z"},"#":{"x_min":0,"x_max":769,"ha":769,"o":"m 345 411 l 305 298 l 425 298 l 465 411 z m 334 716 l 456 716 l 388 524 l 503 524 l 572 716 l 694 716 l 626 524 l 758 524 l 716 411 l 585 411 l 546 299 l 681 299 l 640 186 l 506 186 l 437 -6 l 315 -6 l 383 186 l 268 186 l 199 -6 l 77 -6 l 145 186 l 11 186 l 53 299 l 185 299 l 225 411 l 87 411 l 129 524 l 265 524 z"},",":{"x_min":0,"x_max":308,"ha":308,"o":"m 60 157 l 235 157 l 87 -109 l -53 -109 z"},"n":{"x_min":0,"x_max":671,"ha":671,"o":"m 588 205 l 544 0 l 365 0 l 419 258 q 422 272 423 285 q 425 298 425 309 q 425 345 408 365 q 391 385 360 385 q 307 385 271 343 q 236 301 218 217 l 172 0 l -8 0 l 102 519 l 263 519 l 243 427 q 287 477 336 502 q 385 527 439 527 q 519 527 563 480 q 607 433 607 347 q 607 321 602 286 q 598 250 588 205 z"},"h":{"x_min":0,"x_max":671,"ha":671,"o":"m 154 750 l 333 750 l 270 451 q 309 489 352 508 q 394 527 442 527 q 522 527 566 480 q 610 433 610 347 q 610 321 605 286 q 601 250 591 205 l 548 0 l 368 0 l 423 258 q 426 272 427 285 q 429 298 429 309 q 429 345 412 365 q 395 385 364 385 q 311 385 275 343 q 239 301 221 217 l 175 0 l -5 0 z"},"z":{"x_min":0,"x_max":523,"ha":523,"o":"m 89 514 l 522 514 l 493 377 l 217 130 l 450 130 l 422 0 l -30 0 l -1 137 l 275 387 l 62 387 z"},"B":{"x_min":0,"x_max":671,"ha":671,"o":"m 240 302 l 203 127 l 286 127 q 352 127 387 153 q 423 179 423 227 q 423 265 400 283 q 376 302 330 302 z m 298 575 l 265 416 l 329 416 q 393 416 429 440 q 465 463 465 505 q 465 537 442 556 q 420 575 381 575 z m 145 694 l 407 694 q 465 694 500 690 q 534 686 555 676 q 599 656 622 621 q 646 585 646 540 q 646 469 596 419 q 545 370 464 363 q 529 351 565 313 q 601 275 601 220 q 601 169 579 125 q 556 82 514 52 q 475 24 423 12 q 371 0 277 0 l -3 0 z"},"K":{"x_min":0,"x_max":692,"ha":692,"o":"m 141 694 l 325 694 l 265 409 l 519 694 l 753 694 l 429 358 l 632 0 l 417 0 l 249 334 l 178 0 l -7 0 z"},"R":{"x_min":0,"x_max":664,"ha":664,"o":"m 294 567 l 261 405 l 327 405 q 392 405 427 428 q 462 452 462 495 q 462 531 438 549 q 414 567 366 567 z m 141 694 l 403 694 q 527 694 589 651 q 652 607 652 522 q 652 445 602 399 q 552 354 461 346 q 489 329 505 305 q 521 281 530 236 l 581 0 l 399 0 l 350 223 q 343 252 325 264 q 307 276 267 276 l 234 276 l 176 0 l -6 0 z"},"T":{"x_min":0,"x_max":562,"ha":562,"o":"m 88 694 l 625 694 l 596 560 l 419 560 l 300 0 l 113 0 l 232 560 l 60 560 z"},"P":{"x_min":0,"x_max":632,"ha":632,"o":"m 300 569 l 261 383 l 310 383 q 377 383 414 410 q 451 438 451 487 q 451 527 423 548 q 396 569 343 569 z m 142 694 l 347 694 q 494 694 563 648 q 632 603 632 506 q 632 387 552 318 q 473 250 333 250 q 316 250 291 251 q 267 251 234 253 l 179 0 l -5 0 z"},"|":{"x_min":0,"x_max":500,"ha":500,"o":"m 192 764 l 309 764 l 309 -236 l 192 -236 z"},"t":{"x_min":0,"x_max":442,"ha":442,"o":"m 360 686 l 323 514 l 450 514 l 424 391 l 297 391 l 259 212 q 255 197 254 185 q 252 173 252 167 q 252 139 265 126 q 278 114 308 114 q 319 114 334 116 q 350 119 367 124 l 341 1 q 308 -4 284 -7 q 260 -10 242 -10 q 162 -10 118 31 q 74 72 74 146 q 74 159 75 171 q 77 184 79 197 l 120 391 l 15 391 l 41 514 l 146 514 l 172 636 z"},"M":{"x_min":0,"x_max":944,"ha":944,"o":"m 137 694 l 425 694 l 440 341 q 440 330 441 318 q 441 305 441 286 q 441 270 440 249 q 439 228 438 202 q 447 233 461 268 q 475 303 494 344 l 655 694 l 953 694 l 803 0 l 632 0 l 719 419 q 726 454 736 492 q 745 531 757 574 l 751 574 l 481 0 l 310 0 l 285 574 l 277 574 q 265 507 257 463 q 250 418 247 407 l 159 0 l -11 0 z"},"g":{"x_min":0,"x_max":685,"ha":685,"o":"m 430 290 q 430 337 403 366 q 376 395 334 395 q 280 395 243 344 q 205 293 205 218 q 205 173 229 146 q 254 118 294 118 q 350 118 390 168 q 430 219 430 290 z m 482 514 l 660 514 l 551 1 q 528 -111 449 -167 q 371 -222 236 -222 q 187 -222 136 -213 q 86 -204 34 -186 l 67 -53 q 101 -75 141 -86 q 182 -97 228 -97 q 312 -97 356 -49 q 400 -1 415 104 q 375 52 328 26 q 280 0 223 0 q 132 0 77 61 q 23 122 23 225 q 23 280 38 330 q 53 379 82 420 q 119 473 173 500 q 228 528 294 528 q 351 528 394 502 q 437 477 463 427 z"},"j":{"x_min":0,"x_max":331,"ha":331,"o":"m 123 514 l 305 514 l 195 -6 q 172 -117 120 -167 q 68 -216 -25 -216 q -47 -216 -73 -211 q -98 -207 -129 -197 l -106 -88 q -94 -92 -82 -95 q -69 -97 -59 -97 q -33 -97 -15 -78 q 2 -58 10 -19 z m 168 731 l 350 731 l 323 599 l 141 599 z"},"i":{"x_min":0,"x_max":331,"ha":331,"o":"m 120 514 l 295 514 l 186 0 l 11 0 z m 166 731 l 342 731 l 314 601 l 139 601 z"},"y":{"x_min":0,"x_max":606,"ha":606,"o":"m 35 514 l 214 514 l 245 307 l 245 305 q 257 225 261 168 q 275 201 288 229 q 300 257 311 277 l 439 514 l 626 514 l 296 -52 q 240 -148 187 -184 q 134 -219 55 -219 q 26 -219 -8 -213 q -42 -206 -82 -193 l -40 -68 q -20 -77 -1 -82 q 18 -86 35 -86 q 76 -86 104 -65 q 133 -45 150 -4 z"},"@":{"x_min":0,"x_max":1000,"ha":1000,"o":"m 567 128 q 540 88 505 69 q 471 51 423 51 q 343 51 302 94 q 261 136 261 219 q 261 337 330 417 q 399 496 501 496 q 539 496 566 481 q 594 466 613 436 l 638 481 l 739 481 l 664 183 q 664 182 664 180 q 662 171 662 167 q 662 152 670 145 q 678 138 693 138 q 760 138 810 208 q 861 278 861 372 q 861 489 773 562 q 686 636 545 636 q 473 636 411 618 q 350 601 299 565 q 223 511 182 431 q 141 351 141 257 q 141 109 240 22 q 339 -66 506 -66 q 586 -66 660 -43 q 734 -20 797 25 l 844 -41 q 768 -98 684 -126 q 599 -155 506 -155 q 412 -155 333 -131 q 253 -107 192 -60 q 115 0 78 77 q 40 155 40 254 q 40 336 66 410 q 92 484 142 546 q 214 635 318 682 q 421 728 546 728 q 629 728 702 706 q 775 683 829 641 q 896 589 928 522 q 961 456 961 373 q 961 292 929 223 q 897 155 836 106 q 802 79 761 64 q 719 50 675 50 q 623 50 596 69 q 569 89 567 128 z m 585 340 q 581 377 561 396 q 541 416 507 416 q 457 416 418 357 q 380 297 380 217 q 380 176 397 154 q 414 132 445 132 q 486 132 517 161 q 548 189 560 238 z"},".":{"x_min":0,"x_max":308,"ha":308,"o":"m 45 160 l 211 160 l 177 0 l 11 0 z"},"p":{"x_min":0,"x_max":685,"ha":685,"o":"m 200 86 l 137 -209 l -43 -209 l 112 519 l 273 519 l 253 428 q 291 478 338 503 q 385 529 441 529 q 533 529 588 467 q 642 405 642 299 q 642 160 566 73 q 491 -14 370 -14 q 313 -14 270 12 q 226 38 200 86 z m 458 292 q 458 339 434 367 q 410 395 369 395 q 314 395 274 345 q 234 295 234 227 q 234 177 260 148 q 286 118 329 118 q 382 118 420 169 q 458 220 458 292 z"},"X":{"x_min":0,"x_max":692,"ha":692,"o":"m 92 694 l 289 694 l 334 566 q 334 565 335 562 q 350 518 361 477 l 529 694 l 746 694 l 473 368 l 624 0 l 427 0 l 365 168 q 360 184 353 206 q 346 229 339 254 l 154 0 l -72 0 l 231 375 z"},"*":{"x_min":0,"x_max":500,"ha":500,"o":"m 226 749 l 350 749 l 316 578 l 469 662 l 506 546 l 333 524 l 460 404 l 362 333 l 288 494 l 214 333 l 116 404 l 243 524 l 70 546 l 107 662 l 261 578 z"},"Y":{"x_min":0,"x_max":676,"ha":676,"o":"m 47 694 l 249 694 l 314 492 q 315 489 322 463 q 328 437 334 413 q 351 441 364 463 q 378 484 385 494 l 531 694 l 747 694 l 404 262 l 348 0 l 164 0 l 216 262 z"},"c":{"x_min":0,"x_max":498,"ha":498,"o":"m 511 495 l 470 371 q 441 384 414 391 q 386 398 360 398 q 289 398 245 357 q 201 316 201 250 q 201 192 237 158 q 273 124 334 124 q 358 124 384 130 q 409 136 436 148 l 415 12 q 374 1 338 -4 q 301 -9 268 -9 q 151 -9 82 56 q 13 122 13 230 q 13 364 103 447 q 192 529 339 529 q 383 529 426 521 q 469 512 511 495 z"},"!":{"x_min":0,"x_max":440,"ha":440,"o":"m 100 160 l 265 160 l 233 0 l 68 0 z m 204 694 l 387 694 l 265 227 l 128 227 z"},"/":{"x_min":0,"x_max":280,"ha":280,"o":"m 193 731 l 291 731 l 92 0 l -6 0 z"},"[":{"x_min":0,"x_max":440,"ha":440,"o":"m 206 763 l 466 763 l 443 654 l 331 654 l 187 -25 l 298 -25 l 276 -132 l 16 -132 z"},"6":{"x_min":0,"x_max":616,"ha":616,"o":"m 300 330 q 256 330 229 295 q 202 261 202 204 q 202 155 222 130 q 242 104 281 104 q 325 104 354 142 q 383 179 383 237 q 383 279 360 304 q 337 330 300 330 z m 606 656 l 567 537 q 533 562 497 574 q 460 586 420 586 q 348 586 303 543 q 259 500 231 404 q 260 424 290 433 q 321 443 356 443 q 446 443 500 387 q 553 331 553 237 q 553 125 480 55 q 407 -14 286 -14 q 172 -14 107 56 q 43 125 43 250 q 43 330 63 408 q 83 486 117 546 q 165 627 237 668 q 310 709 407 709 q 457 709 506 696 q 556 683 606 656 z"},"r":{"x_min":0,"x_max":454,"ha":454,"o":"m 485 517 l 445 367 q 420 374 401 377 q 381 381 367 381 q 310 381 278 345 q 246 310 226 222 l 178 0 l -2 0 l 103 516 l 266 516 l 247 422 q 286 478 326 503 q 366 528 417 528 q 433 528 449 525 q 466 522 485 517 z"},"2":{"x_min":0,"x_max":616,"ha":616,"o":"m 407 243 l 246 130 l 512 130 l 484 0 l -7 0 l 19 130 l 278 326 q 338 372 365 410 q 392 449 392 488 q 392 531 364 556 q 336 581 289 581 q 261 581 224 571 q 187 561 124 536 l 144 683 q 193 699 239 706 q 285 714 328 714 q 440 714 505 658 q 571 603 571 507 q 571 435 529 367 q 486 299 407 243 z"},"{":{"x_min":0,"x_max":500,"ha":500,"o":"m 436 721 l 436 603 q 433 603 426 604 q 419 604 416 604 q 368 604 352 587 q 335 569 335 515 l 335 398 q 335 330 312 300 q 290 271 232 259 q 291 247 313 219 q 335 190 335 121 l 335 3 q 335 -51 351 -68 q 368 -85 415 -85 q 418 -85 426 -84 q 433 -84 436 -84 l 436 -202 q 429 -202 416 -203 q 402 -203 396 -203 q 343 -203 308 -197 q 273 -191 250 -179 q 221 -164 210 -136 q 198 -108 198 -42 l 198 83 q 198 148 174 175 q 150 201 92 201 q 90 201 83 201 q 77 200 74 200 l 74 318 q 77 318 83 317 q 89 317 92 317 q 149 317 174 344 q 198 371 198 436 l 198 560 q 198 626 210 655 q 222 683 250 698 q 273 710 309 716 q 344 722 397 722 q 403 722 416 722 q 429 721 436 721 z"},"9":{"x_min":0,"x_max":616,"ha":616,"o":"m 6 36 l 50 159 q 87 135 122 124 q 157 112 192 112 q 267 112 316 160 q 365 208 384 299 q 359 277 329 267 q 298 257 259 257 q 170 257 116 312 q 63 368 63 460 q 63 570 134 639 q 205 708 319 708 q 440 708 505 639 q 570 570 570 440 q 570 353 547 270 q 524 188 482 126 q 432 52 369 20 q 306 -12 209 -12 q 150 -12 100 0 q 49 12 6 36 z m 414 495 q 414 543 394 569 q 373 594 335 594 q 294 594 266 558 q 237 521 237 468 q 237 422 257 398 q 276 374 315 374 q 359 374 386 407 q 414 441 414 495 z"}," ":{"x_min":0,"x_max":308,"ha":308,"o":""},"I":{"x_min":0,"x_max":331,"ha":331,"o":"m 144 694 l 329 694 l 181 0 l -4 0 z"},"H":{"x_min":0,"x_max":727,"ha":727,"o":"m 140 694 l 329 694 l 274 433 l 489 433 l 545 694 l 734 694 l 587 0 l 397 0 l 460 294 l 244 294 l 182 0 l -7 0 z"},"4":{"x_min":0,"x_max":616,"ha":616,"o":"m 405 570 l 154 262 l 331 262 z m 380 694 l 583 694 l 491 262 l 590 262 l 563 139 l 465 139 l 436 0 l 263 0 l 292 139 l -7 139 l 13 262 z"},"~":{"x_min":0,"x_max":833,"ha":833,"o":"m 747 400 l 747 276 q 698 242 652 226 q 607 209 563 209 q 541 209 520 213 q 498 216 479 223 q 473 225 460 229 q 336 273 274 273 q 233 273 188 255 q 144 236 87 196 l 87 320 q 142 355 188 373 q 235 390 276 390 q 307 390 338 384 q 369 378 420 362 q 428 359 445 354 q 523 326 566 326 q 607 326 651 344 q 694 361 747 400 z"},"D":{"x_min":0,"x_max":773,"ha":773,"o":"m 303 560 l 213 137 l 291 137 q 353 137 394 151 q 436 165 467 196 q 504 233 525 285 q 546 337 546 393 q 546 473 501 516 q 456 560 373 560 z m 142 694 l 373 694 q 556 694 646 618 q 735 542 735 387 q 735 298 704 222 q 673 146 616 97 q 558 46 480 23 q 402 0 285 0 l -5 0 z"},"^":{"x_min":0,"x_max":1000,"ha":1000,"o":"m 429 714 l 570 714 l 797 439 l 668 439 l 500 606 l 331 439 l 202 439 z"},"0":{"x_min":0,"x_max":616,"ha":616,"o":"m 415 491 q 415 539 399 564 q 382 590 352 590 q 328 590 306 571 q 283 553 267 519 q 252 489 240 449 q 228 410 217 359 q 207 313 202 275 q 197 237 197 208 q 197 159 214 132 q 232 105 264 105 q 288 105 308 122 q 328 139 344 172 q 359 203 371 243 q 384 282 394 330 q 404 377 410 418 q 415 459 415 491 z m 342 711 q 463 711 523 646 q 583 582 583 452 q 583 355 558 261 q 532 167 488 99 q 451 42 395 12 q 340 -17 270 -17 q 155 -17 94 52 q 32 121 32 250 q 32 354 62 451 q 91 548 143 614 q 180 661 231 686 q 283 711 342 711 z"},"F":{"x_min":0,"x_max":565,"ha":565,"o":"m 141 694 l 605 694 l 577 565 l 297 565 l 266 415 l 534 415 l 507 285 l 238 285 l 178 0 l -7 0 z"},"`":{"x_min":0,"x_max":500,"ha":500,"o":"m 172 763 l 304 763 l 385 582 l 316 582 z"},"k":{"x_min":0,"x_max":604,"ha":604,"o":"m 162 750 l 340 750 l 244 300 l 422 514 l 624 514 l 412 275 l 542 0 l 347 0 l 237 268 l 181 0 l 3 0 z"},"u":{"x_min":0,"x_max":671,"ha":671,"o":"m 92 514 l 272 514 l 218 256 q 215 243 213 230 q 212 217 212 205 q 212 167 229 148 q 247 128 280 128 q 330 128 366 171 q 401 215 419 297 l 465 514 l 645 514 l 535 0 l 374 0 l 394 87 q 350 37 301 12 q 252 -13 198 -13 q 118 -13 74 34 q 30 81 30 166 q 30 192 35 229 q 40 265 49 309 z"},"]":{"x_min":0,"x_max":440,"ha":440,"o":"m 149 763 l 409 763 l 219 -132 l -41 -132 l -18 -23 l 93 -23 l 237 656 l 126 656 z"},"U":{"x_min":0,"x_max":736,"ha":736,"o":"m 139 694 l 325 694 l 241 307 q 235 282 233 257 q 230 232 230 209 q 230 170 258 143 q 287 116 328 116 q 384 116 417 159 q 449 202 474 314 l 558 694 l 737 694 l 648 262 q 618 116 539 49 q 459 -18 317 -18 q 186 -18 115 42 q 45 103 45 215 q 45 240 47 264 q 50 288 55 309 z"},"o":{"x_min":0,"x_max":667,"ha":667,"o":"m 436 294 q 436 347 410 379 q 384 410 340 410 q 283 410 243 355 q 202 301 202 222 q 202 171 230 138 q 257 106 301 106 q 357 106 396 160 q 436 214 436 294 z m 350 528 q 475 528 546 463 q 617 399 617 286 q 617 151 526 68 q 435 -15 284 -15 q 161 -15 91 48 q 20 111 20 220 q 20 361 109 444 q 198 528 350 528 z"},"N":{"x_min":0,"x_max":778,"ha":778,"o":"m 139 694 l 367 694 l 475 342 q 490 295 498 261 q 505 228 509 197 l 517 197 q 519 226 525 261 q 531 296 541 343 l 615 694 l 784 694 l 636 0 l 408 0 l 290 388 q 282 415 276 442 q 270 470 267 500 l 260 500 q 255 462 250 427 q 244 393 238 363 l 161 0 l -9 0 z"},"+":{"x_min":0,"x_max":833,"ha":833,"o":"m 359 596 l 475 596 l 475 355 l 709 355 l 709 242 l 475 242 l 475 0 l 359 0 l 359 242 l 124 242 l 124 355 l 359 355 z"},"G":{"x_min":0,"x_max":762,"ha":762,"o":"m 728 677 l 688 534 q 649 555 607 566 q 565 576 520 576 q 382 576 304 506 q 226 436 226 313 q 226 224 274 173 q 322 122 406 122 q 423 122 441 125 q 459 127 480 133 l 511 278 l 397 278 l 424 404 l 713 404 l 631 20 q 579 3 521 -6 q 462 -14 392 -14 q 224 -14 131 72 q 38 159 38 315 q 38 394 64 463 q 90 531 141 583 q 205 649 290 680 q 375 711 498 711 q 561 711 618 703 q 675 694 728 677 z"},"q":{"x_min":0,"x_max":685,"ha":685,"o":"m 429 290 q 429 337 402 366 q 375 396 333 396 q 280 396 242 345 q 205 294 205 219 q 205 174 229 146 q 253 119 293 119 q 349 119 389 169 q 429 219 429 290 z m 498 514 l 661 514 l 509 -208 l 332 -208 l 392 65 q 356 24 314 5 q 271 -15 221 -15 q 129 -15 74 47 q 20 109 20 214 q 20 353 96 440 q 172 528 293 528 q 354 528 399 499 q 444 469 474 410 z"},"d":{"x_min":0,"x_max":685,"ha":685,"o":"m 430 290 q 430 337 403 366 q 376 395 334 395 q 280 395 243 344 q 205 293 205 218 q 205 173 229 146 q 254 118 294 118 q 350 118 390 168 q 430 219 430 290 z m 533 750 l 710 750 l 551 0 l 391 0 l 410 86 q 373 36 325 10 q 278 -15 222 -15 q 130 -15 75 47 q 21 108 21 214 q 21 353 97 440 q 173 528 294 528 q 351 528 394 502 q 437 477 463 427 z"},"1":{"x_min":0,"x_max":616,"ha":616,"o":"m 377 694 l 513 694 l 371 0 l 196 0 l 312 518 l 174 418 l 103 552 z"},"5":{"x_min":0,"x_max":616,"ha":616,"o":"m 166 694 l 618 694 l 591 569 l 296 569 l 272 455 q 288 456 296 457 q 304 457 310 457 q 416 457 479 401 q 542 344 542 250 q 542 198 521 153 q 500 107 461 72 q 416 32 352 10 q 289 -12 219 -12 q 167 -12 116 -3 q 65 7 14 26 l 44 168 q 80 146 121 134 q 163 123 209 123 q 280 123 323 156 q 365 189 365 242 q 365 292 328 317 q 291 343 219 343 q 196 343 163 340 q 129 337 84 331 z"}}}
